# xmcd
#
# Track frame offsets: 
#        150
#        11608
#        21767
#        29514
#        39630
#        54138
#        64080
#        74826
#        83195
#        92355
#        102963
#        112317
#        121860
#        135824
#        146785
#        158363
#        172727
#        182569
#        191750
#        203497
#        214960
#        225136
#        236810
#        246731
#
# Disc length: 3400 seconds
#
# Revision: 0
# Processed by: cddbd v1.5.1PL0 Copyright (c) Steve Scherf et al.
# Submitted via: ExactAudioCopy v0.95a5
#
DISCID=440d4618
DTITLE=Four Vagabonds - Complete Recorded Works (1941-1951) Vol. 2: 19
DTITLE=42-43
DYEAR=1900
DGENRE=
TTITLE0=I Had the Craziest Dream
TTITLE1=Yeah Man
TTITLE2=Juke Box Saturday Night
TTITLE3=Hip Hip Hooray
TTITLE4=Can't Get Out of This World
TTITLE5=Slender Tender and Tail
TTITLE6=Three Dreams
TTITLE7=Take It from There
TTITLE8=Hasta Luego
TTITLE9=You'd Be So Nice to Come Home To
TTITLE10=Moonlight Mood
TTITLE11=Why Don't You Fall in Love with Me
TTITLE12=I Lost My Sugar in Salt Lake City
TTITLE13=I've Heard That Song Before
TTITLE14=Saving Myself for Bill
TTITLE15=Hit the Road to Dreamland
TTITLE16=Could It Be You?
TTITLE17=It Can't Be Wrong
TTITLE18=Can't Get Stuff in Your Cuff
TTITLE19=Don't Get Around Much Anymore
TTITLE20=Sharp as a Tack
TTITLE21=Stick to Your Knittin' Kitten
TTITLE22=Hey Good Lookin'
TTITLE23=I Don't Want Anybody
EXTD=
EXTT0=
EXTT1=
EXTT2=
EXTT3=
EXTT4=
EXTT5=
EXTT6=
EXTT7=
EXTT8=
EXTT9=
EXTT10=
EXTT11=
EXTT12=
EXTT13=
EXTT14=
EXTT15=
EXTT16=
EXTT17=
EXTT18=
EXTT19=
EXTT20=
EXTT21=
EXTT22=
EXTT23=
PLAYORDER=
